<?xml version="1.0" encoding="UTF-8"?>
<svg id="Layer_1" xmlns="http://www.w3.org/2000/svg" version="1.1" viewBox="0 0 24 24">
  <!-- Generator: Adobe Illustrator 29.5.1, SVG Export Plug-In . SVG Version: 2.1.0 Build 141)  -->
  <defs>
    <style>
      .st0 {
        stroke-miterlimit: 10;
      }

      .st0, .st1 {
        fill: none;
        stroke: #356dff;
        stroke-width: 2px;
      }

      .st1 {
        stroke-linecap: round;
        stroke-linejoin: round;
      }
    </style>
  </defs>
  <circle class="st1" cx="12" cy="12" r="10.6"/>
  <path class="st0" d="M10.2,4.7c-.8.2-1.3.4-2.3.8-1.2.5-1.8.7-2,1.1-.6.8.1,1.6,0,3.3-.1,1.8-1,1.9-1.1,3.5,0,1.7.9,2.9,1.7,3.9.3.4,2.1,2.8,3.2,2.3.5-.2.6-1.1.7-2.3.3-2.9-.6-3.6-.1-4.7.9-1.8,3.9-.8,5-2.7.9-1.5.1-4.3-1.5-5.2-1-.5-2.3-.3-3.6,0Z"/>
  <path class="st1" d="M22.5,10.3c-4,.1-5.1.9-5.4,1.7-.2.7.4,1.3.1,2.3-.4,1.1-1.5,1.2-2.3,2.2-.6.7-1.1,2-.6,4.6"/>
</svg>