<?xml version="1.0" encoding="UTF-8"?>
<svg id="Layer_1" xmlns="http://www.w3.org/2000/svg" version="1.1" viewBox="0 0 24 24">
  <!-- Generator: Adobe Illustrator 29.5.1, SVG Export Plug-In . SVG Version: 2.1.0 Build 141)  -->
  <defs>
    <style>
      .st0 {
        stroke-linecap: round;
        stroke-linejoin: round;
      }

      .st0, .st1 {
        fill: none;
        stroke: #000;
        stroke-width: 2px;
      }

      .st1 {
        stroke-miterlimit: 10;
      }
    </style>
  </defs>
  <circle class="st0" cx="12" cy="12" r="10"/>
  <path class="st1" d="M10.3,5.2c-.7.2-1.2.4-2.1.7-1.1.4-1.6.7-1.9,1-.6.8.1,1.5,0,3.1-.1,1.7-1,1.8-1,3.2,0,1.6.9,2.8,1.6,3.7.3.3,2,2.6,3,2.2.5-.2.6-1.1.7-2.2.2-2.7-.6-3.4-.1-4.4.8-1.7,3.6-.8,4.7-2.5.9-1.4.1-4-1.4-4.9-1-.5-2.1-.3-3.4,0Z"/>
  <path class="st0" d="M20.8,7.3c-1.2.6-3.5,4.2-4,4.7-.8.9-1.4,1.6-1.4,2.5,0,1.1,1,1.5,1,2.5,0,.8-3.5,4.4-4.4,5"/>
</svg>