<?xml version="1.0" encoding="UTF-8"?>
<svg id="Layer_1" xmlns="http://www.w3.org/2000/svg" version="1.1" viewBox="0 0 32 32">
  <!-- Generator: Adobe Illustrator 30.0.0, SVG Export Plug-In . SVG Version: 2.1.1 Build 123)  -->
  <defs>
    <style>
      .st0 {
        fill: none;
        stroke: #8b5cf6;
        stroke-linecap: round;
        stroke-linejoin: round;
        stroke-width: 2.7px;
      }
    </style>
  </defs>
  <path class="st0" d="M28,27.9"/>
  <path class="st0" d="M4.6,28.7"/>
  <path class="st0" d="M20.9,13.6h0c1.3,0,2.4,1.1,2.4,2.4v12.7h-4.7v-12.7c0-1.3,1.1-2.4,2.4-2.4Z"/>
  <path class="st0" d="M11.6,13.6h0c1.3,0,2.4,1.1,2.4,2.4v12.7h-4.7v-12.7c0-1.3,1.1-2.4,2.4-2.4Z"/>
  <path class="st0" d="M24.2,28.7h-15.7c-2,0-3.7-1.4-3.7-3.1v-13.1c3.8-3.4,7.7-6.9,11.5-10.3,3.8,3.4,7.7,6.9,11.5,10.3v13.1c0,1.7-1.6,3.1-3.7,3.1Z"/>
</svg>