<?xml version="1.0" encoding="UTF-8"?>
<svg id="Layer_1" xmlns="http://www.w3.org/2000/svg" version="1.1" viewBox="0 0 24 24">
  <!-- Generator: Adobe Illustrator 30.0.0, SVG Export Plug-In . SVG Version: 2.1.1 Build 123)  -->
  <defs>
    <style>
      .st0 {
        fill: none;
        stroke: #57d1ae;
        stroke-linecap: round;
        stroke-linejoin: round;
        stroke-width: 2px;
      }
    </style>
  </defs>
  <path class="st0" d="M18,8h1c2.2,0,4,1.8,4,4s-1.8,4-4,4h-1"/>
  <path class="st0" d="M2,8h16v9c0,2.2-1.8,4-4,4H6c-2.2,0-4-1.8-4-4v-9Z"/>
  <path class="st0" d="M6,1c-.2.4-.3.9-.2,1.5,0,.6.4.8.6,1.5.1.4.2.9,0,1.7"/>
  <path class="st0" d="M9.6,1c-.2.4-.3.9-.2,1.5,0,.6.4.8.6,1.5.1.4.2.9,0,1.7"/>
  <path class="st0" d="M13.2,1c-.2.4-.3.9-.2,1.5,0,.6.4.8.6,1.5.1.4.2.9,0,1.7"/>
</svg>